mtllib cube.mtl
v 1.0 1.0 -1.0
v 1.0 -1.0 -1.0
v 1.0 1.0 1.0
v 1.0 -1.0 1.0
v -1.0 1.0 -1.0
v -1.0 -1.0 -1.0
v -1.0 1.0 1.0
v -1.0 -1.0 1.0
vt 0.625 0.5
vt 0.875 0.5
vt 0.875 0.75
vt 0.625 0.75
vt 0.375 0.0
vt 0.625 0.0
vt 0.625 0.25
vt 0.375 0.25
vt 0.375 0.25
vt 0.625 0.25
vt 0.625 0.5
vt 0.375 0.5
vt 0.625 0.75
vt 0.375 0.75
vt 0.125 0.5
vt 0.375 0.5
vt 0.375 0.75
vt 0.125 0.75
vt 0.625 1.0
vt 0.375 1.0
vn 0.0 0.0 -1.0
vn 0.0 1.0 0.0
vn 0.0 0.0 1.0
vn -1.0 0.0 0.0
vn 1.0 0.0 0.0
vn 0.0 -1.0 0.0
usemtl mat1
f 6//1 5//1 1//1 2//1 
usemtl mat2
f 1/5/2 5/6/2 7/7/2 3/8/2 
usemtl mat3
f 4/9/3 3/10/3 7/11/3 8/12/3 
usemtl mat4
f 8/12/4 7/11/4 5/13/4 6/14/4 
usemtl mat5
f 2/15/5 1/16/5 3/17/5 4/18/5 
usemtl mat6
f 6/14 2/4 4/19 8/20 
